<svg xmlns="http://www.w3.org/2000/svg" version="1.1" xmlns:xlink="http://www.w3.org/1999/xlink" width="2000" height="1500" viewBox="0 0 2000 1500"><rect width="2000" height="1500" x="0" y="0" id="background" stroke="transparent" fill="#202113"></rect><svg xml:space="preserve" width="1500" height="1125" data-version="2" data-id="lg_nYaWOVSVA4KYvTuhLh" viewBox="0 0 353 304" x="250" y="187.5"><rect width="100%" height="100%" fill="transparent"></rect><g transform="translate(176.5 152)scale(3.4882)"><linearGradient id="a" x1="0" x2="1" y1="0" y2="0" gradientUnits="objectBoundingBox"><stop offset="0%" stop-color="#9c7945"></stop><stop offset="49.8%" stop-color="#faf3aa"></stop><stop offset="100%" stop-color="#9c7945"></stop></linearGradient><path fill="url(#a)" d="M92.422 47.256c.042-.18.066-.366.066-.555 0-1.759-1.923-3.183-4.296-3.183-.857 0-1.654.187-2.325.507a23.485 23.485 0 0 0-3.477-.682c-1.048-1.185-2.872-1.969-4.947-1.969-2.636 0-4.868 1.265-5.617 3.009-4.149 1.408-7.342 3.932-8.726 6.997h13.774l-.007.006c-.992.803-3.626 2.15-10.126 2.15-4 0-7.329 1.349-9.897 4.011-1.134 1.176-2.026 2.524-2.73 3.934-.927-4.731-1.291-11.464 1.908-12.767 9.229-3.76 15.616-11.02 16.367-18.406H100c-2.484-5.501-8.046-10.083-15.315-12.812.268-.471.416-.976.416-1.501 0-2.548-3.419-4.613-7.637-4.613-.788 0-1.548.072-2.263.206-1.355-2.298-4.688-3.668-8.361-3.202-4.533.575-7.867 3.726-7.447 7.039.016.121.037.24.063.358-5.299 1.131-10.01 3.169-13.743 5.845a.611.611 0 0 1-.041-.01c-.445-.604-1.255-1.009-2.183-1.009-.569 0-1.092.154-1.516.41a35.266 35.266 0 0 0-3.696-.194c-3.123 0-6.105.408-8.841 1.147a5.063 5.063 0 0 0-2.015-.409c-2.122 0-3.883 1.254-4.231 2.901-1.788.988-3.362 2.147-4.671 3.442-1.222-.589-2.697-.934-4.287-.934-4.218 0-7.637 2.421-7.637 5.409 0 .708.194 1.384.544 2.004-2.893 1.861-5.088 4.22-6.287 6.877h15.355c.148.893.677 2.524 2.538 4.032 2.672 2.162 7.133 3.26 13.261 3.26 2.625 0 4.687.81 6.302 2.478 4.16 4.297 3.938 12.68 3.936 12.76l.013.001-1.895 28.043h.004l-.001.005c0 1.006 3.964 1.822 8.854 1.822 4.889 0 8.853-.816 8.853-1.822l-.001-.005h.001l-1.346-21.651c.362-2.825 1.3-6.695 3.715-9.189 1.615-1.668 3.677-2.479 6.303-2.479 6.127 0 10.588-1.096 13.259-3.26 1.76-1.424 2.33-2.959 2.511-3.877h13.243c-.695-1.534-1.843-2.932-3.335-4.124M40.499 35.335c-1.527-1.16-3.301-2.167-5.266-2.98h4.82c.087 1.043.236 2.037.446 2.98m6.172 13.102c-.568 1.612-.906 3.462-1.012 5.522-.792-2.259-1.979-4.53-3.758-6.374-2.568-2.662-5.897-4.012-9.896-4.012-5.521 0-8.261-.964-9.588-1.773a4.533 4.533 0 0 1-.723-.536H43.09c.425.583.891 1.127 1.401 1.634a13.622 13.622 0 0 0 3.65 2.579 13.147 13.147 0 0 0-1.47 2.96m4.4-5.921c-1.246-.431-2.644-1.15-3.859-2.356-1.852-1.84-2.951-4.458-3.282-7.804h17.267a13.442 13.442 0 0 0-1.154-2.046h4.414c-.352 1.653-1.274 3.41-2.688 5.078-2.127 2.512-5.138 4.608-8.707 6.062-.71.288-1.374.647-1.991 1.066" transform="translate(-50.43 -50.98)"></path></g></svg></svg>